<svg xmlns="http://www.w3.org/2000/svg" width="1280" height="1280" viewBox="0 0 1280 1280" version="1.1"><path d="" stroke="none" fill="#70fcd4" fill-rule="evenodd"/><path d="M 593.500 75.993 C 519.895 81.126, 450.299 99.675, 385.500 131.428 C 351.647 148.017, 308.817 174.151, 311.343 176.677 C 311.791 177.124, 318.832 177.653, 326.990 177.852 L 341.822 178.214 349.161 174.298 C 353.198 172.144, 362.350 167.068, 369.500 163.017 C 423.107 132.647, 490.065 110.131, 553.825 101.036 C 603.903 93.892, 666.412 94.482, 714.500 102.552 C 790.231 115.261, 859.598 142.237, 922.500 183.439 C 1016.459 244.984, 1089.336 335.612, 1129.133 440.402 C 1137.791 463.199, 1146.817 493.360, 1151.930 516.581 C 1158.908 548.274, 1163.985 592.052, 1163.996 620.620 L 1164 631.740 1158.053 632.910 C 1154.420 633.625, 1148.680 633.831, 1143.303 633.441 C 1138.024 633.057, 1133.446 633.214, 1131.868 633.831 C 1130.327 634.434, 1126.816 638.309, 1123.398 643.180 C 1120.187 647.756, 1111.782 659.304, 1104.720 668.842 C 1097.658 678.381, 1091.492 687.206, 1091.018 688.454 C 1090.349 690.213, 1089.157 690.835, 1085.714 691.223 C 1079.248 691.952, 1072.429 695.750, 1067.081 701.601 C 1061.449 707.764, 1058.996 714.530, 1059.010 723.865 C 1059.027 735.570, 1065.971 746.407, 1076.839 751.691 C 1084.825 755.574, 1096.030 755.663, 1104 751.909 C 1119.956 744.391, 1127.035 725.511, 1119.788 709.804 C 1118.342 706.670, 1115.108 702.055, 1112.600 699.548 L 1108.041 694.989 1119.324 679.744 C 1125.529 671.360, 1132.653 661.622, 1135.155 658.104 L 1139.703 651.708 1148.101 651.859 C 1152.721 651.942, 1158.227 651.596, 1160.337 651.090 L 1164.174 650.171 1163.531 659.836 C 1161.073 696.761, 1156.151 728.364, 1147.440 763.157 C 1142.393 783.316, 1143.848 781.412, 1132.345 782.923 C 1120.671 784.458, 1101.445 784.504, 1091.087 783.022 C 1083.992 782.006, 1083.456 782.074, 1078.587 784.598 C 1062.621 792.875, 1039.693 814.723, 1030.486 830.433 L 1027.838 834.952 1022.976 832.488 C 991.426 816.500, 953.162 822.445, 928.853 847.111 C 918.861 857.250, 911.479 870.132, 907.857 883.751 C 904.934 894.740, 904.954 912.516, 907.900 923.500 C 915.504 951.848, 936.382 973.099, 964.568 981.180 C 975.154 984.216, 994.994 984.434, 1005.500 981.632 C 1039.592 972.538, 1063.879 942.882, 1065.714 908.107 C 1066.827 887.009, 1060.480 868.137, 1046.713 851.605 L 1042.637 846.711 1045.429 841.379 C 1050.696 831.318, 1068.658 812.384, 1080.173 804.754 L 1085.826 801.009 1098.875 802.139 C 1108.519 802.974, 1114.985 802.978, 1123.649 802.154 C 1130.097 801.541, 1135.584 801.251, 1135.842 801.509 C 1136.490 802.157, 1128.906 822.613, 1121.756 839.500 C 1105.006 879.064, 1082.851 917.429, 1056.502 952.500 C 1039.624 974.964, 1027.015 989.242, 1003.251 1012.799 C 991.434 1024.514, 982.065 1034.398, 982.431 1034.764 C 982.797 1035.130, 988.820 1035.608, 995.816 1035.826 L 1008.537 1036.222 1014.017 1031.361 C 1042.794 1005.838, 1083.876 954.261, 1106.955 914.682 C 1111.355 907.137, 1113.581 904.181, 1114.312 904.912 C 1115.886 906.486, 1115.739 942.008, 1114.087 959.250 L 1112.674 974 1108.473 974 C 1091.743 974, 1074.703 983.057, 1065.765 996.700 C 1060.152 1005.269, 1058.418 1009.760, 1057.120 1019.092 C 1051.428 1060.013, 1093.653 1090.436, 1131 1072.324 C 1158.710 1058.885, 1168.420 1023.754, 1151.633 997.672 C 1147.672 991.519, 1139.488 983.677, 1134.588 981.340 C 1130.491 979.387, 1130.584 980.612, 1132.682 956.089 C 1134.979 929.240, 1134.095 905.276, 1130.474 896.227 C 1129.412 893.573, 1127.590 891.366, 1125.389 890.067 L 1121.958 888.043 1126.520 878.961 C 1147.284 837.617, 1164.091 788.607, 1173.987 740.551 C 1175.679 732.329, 1177.183 725.483, 1177.328 725.338 C 1177.473 725.193, 1179.988 726.520, 1182.917 728.287 L 1188.241 731.500 1188.100 744 C 1187.968 755.689, 1188.319 761.800, 1190.892 792.500 C 1191.445 799.100, 1192.148 809.788, 1192.453 816.250 L 1193.009 828 1189.542 828 C 1175.805 828, 1160.774 842.584, 1158.489 858.131 C 1157.014 868.171, 1161.903 881.104, 1169.804 888.059 C 1177.426 894.768, 1182.145 896.484, 1193 896.492 C 1201.365 896.499, 1203.174 896.169, 1208.142 893.730 C 1215.028 890.347, 1221.299 883.746, 1224.815 876.175 C 1226.996 871.478, 1227.445 869.097, 1227.417 862.361 C 1227.388 855.269, 1226.974 853.389, 1224.192 847.739 C 1222.341 843.979, 1219.047 839.454, 1216.351 836.970 L 1211.703 832.685 1210.864 818.092 C 1210.045 803.855, 1208.979 789.361, 1206.886 764 C 1206.318 757.125, 1206.150 745.392, 1206.511 737.927 L 1207.168 724.353 1204.505 721.188 C 1203.041 719.448, 1197.490 715.544, 1192.171 712.512 C 1186.852 709.481, 1181.926 706.630, 1181.224 706.176 C 1180.193 705.509, 1180.237 702.771, 1181.451 691.925 C 1186.269 648.870, 1186.089 607.957, 1180.891 564.500 C 1158.743 379.368, 1044.556 217.240, 877.460 133.678 C 816.155 103.020, 752.079 84.609, 681.756 77.446 C 663.961 75.633, 611.125 74.763, 593.500 75.993 M 603 156.652 C 601.075 156.835, 593.650 157.472, 586.500 158.068 C 557.104 160.517, 519.956 167.522, 507.152 173.030 L 502.233 175.146 505.617 180.173 C 507.478 182.939, 509 185.606, 509 186.100 C 509 187.621, 514.356 187.110, 525.161 184.559 C 556.242 177.220, 574.115 174.742, 609.672 172.844 C 645.139 170.951, 685.999 173.656, 719 180.084 C 740.311 184.234, 775.383 193.983, 793.759 200.864 C 857.859 224.865, 914.410 261.253, 962.518 309.453 C 1009.227 356.250, 1044.939 411.640, 1068.286 473.500 C 1079.536 503.306, 1087.296 532.074, 1092.023 561.500 C 1095.613 583.846, 1096.104 585.523, 1099 585.353 C 1106.450 584.913, 1109.575 584.398, 1110.235 583.500 C 1113.503 579.052, 1103.057 525.944, 1092.336 492.500 C 1078.276 448.642, 1057.426 405.718, 1031.863 368 C 1019.642 349.970, 1015.530 344.481, 1003.022 329.500 C 945.993 261.201, 869.850 208.896, 787.500 181.450 C 745.685 167.514, 709.037 160.117, 666.500 157.025 C 653.745 156.099, 611.448 155.850, 603 156.652 M 106.362 206.494 C 97.233 208.479, 89.339 212.754, 81.924 219.729 C 71.045 229.961, 66 241.794, 66 257.076 C 66 275.270, 74.043 290.056, 89.428 300.143 C 95.806 304.325, 106.152 308, 111.546 308 C 113.381 308, 115.068 308.337, 115.296 308.750 C 115.524 309.163, 114.899 321.650, 113.909 336.500 C 111.394 374.199, 111.317 372.238, 115.496 376.864 C 118.136 379.786, 120.465 381.148, 125.003 382.421 C 130.111 383.854, 130.878 384.362, 130.113 385.804 C 126.154 393.264, 114.898 419.219, 109.942 432.315 L 106.607 441.130 104.826 438.815 C 102.453 435.732, 102.505 435.413, 106.107 430.865 C 117.660 416.279, 114.361 394.586, 99 384.126 C 93.149 380.142, 83.222 377.591, 77.113 378.501 C 65.781 380.190, 54.717 388.808, 50.930 398.898 C 48.055 406.557, 48.469 418.510, 51.834 425 C 57.430 435.791, 67.036 441.943, 79.588 442.773 C 86.505 443.231, 86.722 443.328, 88.588 446.796 C 89.640 448.751, 91.781 451.959, 93.347 453.925 C 99.410 461.537, 99.477 462.008, 96.121 473.331 C 74.804 545.246, 68.380 619.797, 77.062 694.500 C 94.485 844.393, 170.723 979.063, 290.500 1071.525 C 333.709 1104.880, 386.657 1134.035, 438 1152.744 C 564.302 1198.767, 701.637 1197.794, 827.500 1149.985 C 858.107 1138.359, 891.189 1122.081, 919.083 1104.921 C 929.649 1098.421, 933.174 1095.336, 930.886 1094.589 C 921.458 1091.512, 909.903 1088.917, 907.420 1089.320 C 905.726 1089.594, 900.326 1092.142, 895.420 1094.981 C 881.055 1103.293, 848.713 1119.088, 832.500 1125.708 C 782.325 1146.196, 729.606 1158.951, 673.500 1164.177 C 652.902 1166.095, 599.630 1165.795, 579.500 1163.647 C 505.925 1155.795, 444.543 1137.695, 382.366 1105.517 C 333.461 1080.208, 289.640 1047.955, 250 1008.096 C 188.491 946.245, 144.055 872.586, 118.131 789.500 C 93.685 711.152, 87.795 626.347, 101.090 544.118 C 102.865 533.142, 108.736 504.773, 109.300 504.453 C 109.410 504.391, 113.381 502.267, 118.125 499.732 C 122.869 497.198, 131.644 492.012, 137.625 488.207 C 143.606 484.402, 159.750 474.532, 173.500 466.274 C 187.250 458.016, 200.818 449.811, 203.651 448.041 C 207.886 445.396, 209.164 445.017, 210.835 445.912 C 214.198 447.711, 224.254 447.218, 229.249 445.008 C 234.414 442.723, 240.258 436.711, 242.477 431.400 C 243.315 429.396, 244 425.166, 244 422 C 244 398.644, 214.966 388.203, 199.680 406.061 C 195.049 411.471, 193.613 416.608, 194.324 425.220 L 194.879 431.940 183.689 438.805 C 177.535 442.581, 163.313 451.208, 152.085 457.975 C 140.856 464.743, 128.279 472.453, 124.135 475.107 C 119.992 477.762, 116.412 479.746, 116.181 479.515 C 115.607 478.940, 124.148 453.268, 129.994 438 C 139.271 413.772, 153.205 384.606, 165.193 364.325 L 167.070 361.151 175.785 365.578 C 187.240 371.397, 200.140 375.007, 209.362 374.976 C 218.518 374.944, 223.219 373.823, 232.763 369.394 C 248.088 362.281, 260.634 356.728, 267.851 353.860 L 275.203 350.940 279.351 355.351 C 284.334 360.649, 292.702 366.115, 299.516 368.523 C 306.084 370.844, 320.694 371.609, 327.886 370.008 C 345.738 366.036, 362.244 349.616, 365.890 332.201 C 367.397 325.007, 367.268 313.595, 365.610 307.368 C 361.563 292.169, 348.793 278.139, 334 272.639 C 327.581 270.253, 316.520 269.116, 309.324 270.104 C 280.437 274.069, 261.315 300.973, 266.397 330.500 L 267.085 334.500 248.793 342.372 C 238.732 346.702, 227.125 351.788, 223 353.673 C 216.081 356.837, 214.919 357.067, 208 356.643 C 203.395 356.360, 197.667 355.152, 193.160 353.512 C 186.060 350.929, 177 346.121, 177 344.936 C 177 343.801, 192.138 321.724, 201.152 309.714 C 214.634 291.752, 229.534 274.445, 246.217 257.372 C 254.348 249.052, 261 241.793, 261 241.240 C 261 240.687, 257.693 239.925, 253.652 239.546 C 249.610 239.168, 244.548 238.462, 242.402 237.978 C 237.400 236.850, 236.112 237.693, 224.951 249.390 C 196.020 279.713, 168.045 317.314, 147.310 353.750 C 143.163 361.038, 139.259 366.997, 138.635 366.994 C 138.011 366.991, 135.778 366.511, 133.674 365.926 C 129.965 364.896, 129.864 364.751, 130.403 361.182 C 130.709 359.157, 131.684 345.800, 132.570 331.500 C 133.456 317.200, 134.253 305.500, 134.341 305.500 C 134.428 305.500, 137.518 303.999, 141.206 302.164 C 158.908 293.357, 170.591 271.654, 168.403 251.638 C 166.018 229.814, 150.909 212.475, 129.504 207.001 C 120.566 204.715, 115.093 204.595, 106.362 206.494 M 111.732 224.065 C 101.365 225.748, 92.999 231.771, 88.001 241.150 C 81.223 253.866, 83.144 268.894, 92.877 279.299 C 95.398 281.994, 99.719 285.390, 102.480 286.845 C 106.885 289.166, 108.665 289.491, 117 289.495 C 125.928 289.500, 126.881 289.294, 132.825 286.071 C 139.553 282.423, 143.828 278.022, 147.011 271.465 C 158.775 247.235, 138.317 219.748, 111.732 224.065 M 304.035 290.153 C 283.220 298.331, 277.125 327.232, 292.893 342.984 C 300.191 350.274, 305.735 352.504, 316.500 352.480 C 327.167 352.457, 332.961 350.160, 339.620 343.317 C 346.402 336.348, 348.460 331.037, 348.460 320.500 C 348.460 312.966, 348.060 310.685, 346.004 306.500 C 342.872 300.125, 336.819 294.067, 330.474 290.958 C 323.444 287.513, 311.668 287.154, 304.035 290.153 M 73.299 398.960 C 64.096 404.571, 65.161 418.372, 75.200 423.595 C 83.276 427.797, 94.986 420.436, 94.996 411.151 C 95.009 400.089, 82.746 393.199, 73.299 398.960 M 214.174 417.314 C 209.844 421.924, 212.767 429, 219 429 C 225.323 429, 228.294 421.503, 223.686 417.174 C 220.683 414.354, 216.904 414.409, 214.174 417.314 M 508.491 481.383 C 505.916 483.265, 505.951 489.402, 508.550 491.973 C 509.925 493.332, 513.597 494.390, 520.994 495.558 C 542.406 498.940, 550.142 503.140, 553.690 513.313 C 555.402 518.219, 555.500 525.795, 555.500 653 L 555.500 787.500 553.207 793.172 C 548.770 804.149, 542.408 807.626, 521.500 810.499 C 511.983 811.807, 510.197 812.354, 508.250 814.561 C 507.012 815.964, 506 817.791, 506 818.622 C 506 820.499, 507.930 824.253, 509.400 825.235 C 510.005 825.639, 539.830 825.976, 575.679 825.985 C 647.982 826.002, 644 826.384, 644 819.429 C 644 814.919, 641.239 812.280, 635.822 811.610 C 610.626 808.495, 605.655 806.944, 598.980 800.111 C 590.389 791.317, 590.632 793.521, 590.225 720.750 L 589.868 657 622.274 657 C 651.097 657, 655.521 657.215, 662.282 658.944 C 666.463 660.013, 671.254 661.597, 672.928 662.463 C 682.419 667.371, 687.864 676.374, 691.635 693.395 C 693.384 701.285, 694.693 705.007, 696.159 706.250 C 699.020 708.678, 704.237 708.500, 706.595 705.895 C 708.421 703.878, 708.500 701.456, 708.500 647.807 L 708.500 591.823 706.139 589.912 C 702.916 587.302, 698.434 587.475, 695.588 590.321 C 693.982 591.927, 692.897 594.774, 692.063 599.571 C 689.733 612.976, 682.464 627.223, 675.602 631.835 C 673.692 633.119, 669.287 635.120, 665.814 636.280 C 659.980 638.231, 656.856 638.420, 624.750 638.775 L 590 639.158 590.018 586.329 C 590.037 529.976, 590.614 519.093, 594 511.221 C 599.980 497.320, 608.373 495.548, 664.842 496.267 C 703.224 496.756, 711.280 497.446, 727.500 501.630 C 736.282 503.896, 746.847 509.125, 752.103 513.809 C 761.440 522.130, 768.838 540.775, 771.999 563.958 C 772.633 568.610, 773.559 573.175, 774.055 574.103 C 775.348 576.518, 779.936 577.823, 783.653 576.833 C 789.092 575.384, 789.140 574.390, 786.026 527.809 C 784.470 504.539, 782.874 484.700, 782.481 483.722 C 782.087 482.744, 780.947 481.507, 779.948 480.972 C 778.798 480.356, 729.044 480, 644.257 480 C 531.877 480, 510.079 480.222, 508.491 481.383 M 153.013 586.465 C 150.165 593.956, 148.898 651.650, 151.014 677.500 C 157.529 757.094, 184.137 835.050, 227.468 901.500 C 301.584 1015.159, 418.503 1091.780, 552.500 1114.505 C 583.016 1119.680, 593.317 1120.464, 631 1120.483 C 667.248 1120.500, 677.524 1119.850, 703.500 1115.894 C 721.524 1113.149, 751.896 1106.521, 767.948 1101.830 C 790.804 1095.151, 823.874 1082.398, 831.815 1077.200 C 834.101 1075.704, 834.040 1075.638, 826.827 1071.843 C 822.811 1069.729, 818.619 1068.006, 817.512 1068.013 C 815.530 1068.027, 810.708 1069.648, 788 1077.935 C 755.733 1089.712, 717.636 1098.278, 678 1102.669 C 658.589 1104.820, 609.444 1105.116, 591 1103.194 C 547.674 1098.678, 507.920 1089.687, 471.474 1076.161 C 449.476 1067.998, 445.200 1066.142, 424 1055.558 C 378.878 1033.031, 342.628 1007.227, 306.629 972.006 C 228.201 895.274, 180.912 797.843, 167.815 686 C 167.038 679.363, 166.570 660.144, 166.543 633.762 L 166.500 592.025 163 589.673 C 153.440 583.250, 154.149 583.477, 153.013 586.465 M 1084.256 710.589 C 1073.363 716.147, 1075.240 732.595, 1087.176 736.171 C 1090.267 737.097, 1091.739 736.990, 1095.469 735.565 C 1100.521 733.635, 1102.562 731.303, 1104.066 725.738 C 1104.900 722.655, 1104.732 721.183, 1103.135 717.573 C 1102.064 715.151, 1100.013 712.400, 1098.579 711.460 C 1094.825 709, 1088.164 708.595, 1084.256 710.589 M 970 843.583 C 948.586 849.232, 931.009 866.967, 925.522 888.460 C 923.596 896.001, 923.588 910.627, 925.504 918.754 C 930.282 939.019, 947.254 956.758, 968 963.172 C 977.581 966.134, 993.357 966.333, 1002.500 963.609 C 1019.162 958.643, 1033.307 946.969, 1040.798 932 C 1047.749 918.110, 1049.434 905.860, 1046.408 891.208 C 1043.836 878.754, 1038.895 869.804, 1029.440 860.471 C 1016.106 847.309, 1003.356 841.951, 985.645 842.066 C 980.065 842.102, 973.025 842.785, 970 843.583 M 1187.001 847.123 C 1180.921 849.548, 1177 855.577, 1177 862.500 C 1177 877.163, 1193.844 884.391, 1204.104 874.131 C 1208.788 869.447, 1210.611 863.431, 1208.935 858.185 C 1205.966 848.885, 1195.641 843.678, 1187.001 847.123 M 1101.873 992.884 C 1095.628 994.195, 1087.196 998.953, 1083.531 1003.235 C 1077.117 1010.728, 1075.500 1015.312, 1075.500 1026 C 1075.500 1034.059, 1075.872 1036.259, 1077.953 1040.500 C 1088.282 1061.557, 1116.611 1065.883, 1132.555 1048.838 C 1139.443 1041.474, 1141.495 1036.230, 1141.492 1026 C 1141.490 1018.729, 1141.086 1016.678, 1138.700 1011.810 C 1132.017 998.175, 1115.966 989.926, 1101.873 992.884" stroke="none" fill="#6cfcd4" fill-rule="evenodd"/></svg>